<svg xmlns="http://www.w3.org/2000/svg"  viewBox="0 0 64 64"><defs fill="#55534E" /><path  d="m46,36h-4v-8h4c6.17,0,10-3.83,10-10s-3.83-10-10-10-10,3.83-10,10v4h-8v-4c0-6.17-3.83-10-10-10s-10,3.83-10,10,3.83,10,10,10h4v8h-4c-6.17,0-10,3.83-10,10s3.83,10,10,10,10-3.83,10-10v-4h8v4c0,6.17,3.83,10,10,10s10-3.83,10-10-3.83-10-10-10Zm-4-18c0-2.47,1.53-4,4-4s4,1.53,4,4-1.53,4-4,4h-4v-4Zm-20,28c0,2.47-1.53,4-4,4s-4-1.53-4-4,1.53-4,4-4h4v4Zm0-24h-4c-2.47,0-4-1.53-4-4s1.53-4,4-4,4,1.53,4,4v4Zm14,14h-8v-8h8v8Zm10,14c-2.47,0-4-1.53-4-4v-4h4c2.47,0,4,1.53,4,4s-1.53,4-4,4Z" fill="#55534E" /></svg>